<svg width="1080" height="760" viewBox="0 0 1080 760" fill="none" xmlns="http://www.w3.org/2000/svg">
<path d="M469.952 313.984C469.952 312.987 470.392 312.048 471.272 311.168C472.093 310.347 473.12 309.936 474.352 309.936C475.115 309.936 475.789 310.112 476.376 310.464C476.904 310.816 477.403 311.197 477.872 311.608C478.283 312.077 478.723 312.488 479.192 312.84C479.603 313.192 480.101 313.368 480.688 313.368C481.568 313.368 482.419 312.869 483.24 311.872C484.003 310.875 484.736 309.496 485.44 307.736C486.144 306.035 486.819 304.011 487.464 301.664C488.168 299.376 488.872 296.912 489.576 294.272L498.992 259.072H490.544L491.424 255.728H499.872C500.693 252.795 502.072 249.949 504.008 247.192C505.944 244.435 508.144 242 510.608 239.888C513.131 237.717 515.741 235.987 518.44 234.696C521.197 233.405 523.749 232.76 526.096 232.76C527.739 232.76 528.912 233.083 529.616 233.728C530.32 234.373 530.672 235.107 530.672 235.928C530.672 236.984 530.203 238.011 529.264 239.008C528.325 239.947 527.181 240.416 525.832 240.416C525.069 240.416 524.424 240.269 523.896 239.976C523.368 239.683 522.869 239.389 522.4 239.096C521.931 238.744 521.403 238.421 520.816 238.128C520.288 237.835 519.613 237.688 518.792 237.688C517.501 237.688 516.269 238.069 515.096 238.832C513.981 239.536 512.925 240.445 511.928 241.56C510.989 242.616 510.168 243.819 509.464 245.168C508.819 246.459 508.32 247.72 507.968 248.952C507.675 250.125 507.381 251.269 507.088 252.384C506.853 253.44 506.589 254.555 506.296 255.728H516.944L516.064 259.072H505.416L496 294.272C495.061 297.733 493.8 300.872 492.216 303.688C490.632 306.504 488.843 308.909 486.848 310.904C484.912 312.899 482.859 314.453 480.688 315.568C478.517 316.683 476.376 317.24 474.264 317.24C472.739 317.24 471.653 316.888 471.008 316.184C470.304 315.539 469.952 314.805 469.952 313.984ZM539.414 254.848C543.403 254.848 546.542 256.109 548.83 258.632C551.176 261.155 552.35 264.587 552.35 268.928C552.35 272.507 551.646 276.027 550.238 279.488C548.888 282.949 547.099 286.059 544.87 288.816C542.64 291.515 540.088 293.715 537.214 295.416C534.398 297.059 531.523 297.88 528.59 297.88C524.483 297.88 521.198 296.56 518.734 293.92C516.328 291.221 515.126 287.584 515.126 283.008C515.126 279.547 515.83 276.144 517.238 272.8C518.646 269.456 520.494 266.464 522.782 263.824C525.07 261.125 527.651 258.955 530.526 257.312C533.459 255.669 536.422 254.848 539.414 254.848ZM530.086 295.152C532.08 295.152 533.987 294.448 535.806 293.04C537.683 291.573 539.326 289.637 540.734 287.232C542.142 284.827 543.256 282.04 544.078 278.872C544.899 275.704 545.31 272.389 545.31 268.928C545.31 265.408 544.576 262.68 543.11 260.744C541.702 258.749 539.736 257.752 537.214 257.752C535.219 257.752 533.312 258.485 531.494 259.952C529.675 261.36 528.062 263.267 526.654 265.672C525.246 268.077 524.131 270.864 523.31 274.032C522.488 277.141 522.078 280.427 522.078 283.888C522.078 287.408 522.782 290.165 524.19 292.16C525.656 294.155 527.622 295.152 530.086 295.152ZM566.456 266.024C566.867 264.616 567.072 263.413 567.072 262.416C567.072 261.36 566.75 260.627 566.104 260.216C565.459 259.805 564.52 259.6 563.288 259.6C562.995 259.6 562.702 259.6 562.408 259.6C562.115 259.6 561.792 259.629 561.44 259.688V258.544C564.198 257.957 566.544 257.371 568.48 256.784C570.475 256.197 572.734 255.464 575.256 254.584L575.872 254.848L568.744 281.072H568.92C570.563 277.728 572.264 274.501 574.024 271.392C575.843 268.224 577.691 265.408 579.568 262.944C581.504 260.48 583.499 258.515 585.552 257.048C587.606 255.581 589.688 254.848 591.8 254.848C592.974 254.848 593.854 255.229 594.44 255.992C595.027 256.696 595.32 257.459 595.32 258.28C595.32 259.453 594.822 260.656 593.824 261.888C592.886 263.12 591.683 263.736 590.216 263.736C589.512 263.736 588.955 263.589 588.544 263.296C588.192 262.944 587.87 262.592 587.576 262.24C587.342 261.888 587.078 261.565 586.784 261.272C586.55 260.92 586.198 260.744 585.728 260.744C584.496 260.744 582.883 261.917 580.888 264.264C578.952 266.611 576.928 269.603 574.816 273.24C572.763 276.819 570.798 280.72 568.92 284.944C567.043 289.168 565.606 293.187 564.608 297H558.184L566.456 266.024Z" fill="#181818"/>
<path d="M656.636 451.244C656.636 440.324 658.274 429.586 661.55 419.03C664.826 408.474 669.255 398.464 674.836 389C680.539 379.536 687.151 370.861 694.674 362.974C702.318 354.966 710.387 348.05 718.88 342.226L721.246 344.956C712.267 351.629 704.259 359.637 697.222 368.98C690.306 378.201 684.543 388.211 679.932 399.01C675.443 409.809 672.227 421.093 670.286 432.862C668.345 444.631 667.859 456.34 668.83 467.988C669.679 477.573 671.621 486.977 674.654 496.198C677.809 505.541 682.541 514.216 688.85 522.224L686.666 524.59C681.449 519.979 676.959 514.762 673.198 508.938C669.437 503.114 666.282 496.987 663.734 490.556C661.307 484.247 659.487 477.755 658.274 471.082C657.182 464.409 656.636 457.796 656.636 451.244ZM987.859 415.572C986.888 426.492 984.28 437.23 980.033 447.786C975.908 458.342 970.569 468.352 964.017 477.816C957.586 487.28 950.246 495.955 941.995 503.842C933.744 511.85 925.13 518.766 916.151 524.59L913.967 521.86C923.552 515.187 932.228 507.179 939.993 497.836C947.758 488.615 954.371 478.605 959.831 467.806C965.412 457.007 969.659 445.723 972.571 433.954C975.604 422.185 977.121 410.476 977.121 398.828C977.121 389.243 975.968 379.839 973.663 370.618C971.479 361.275 967.536 352.6 961.833 344.592L964.199 342.226C969.052 346.837 973.117 352.054 976.393 357.878C979.669 363.702 982.278 369.829 984.219 376.26C986.16 382.569 987.374 389.061 987.859 395.734C988.466 402.407 988.466 409.02 987.859 415.572Z" fill="#181818"/>
<path d="M79.478 480L103.664 355.59H161.432C189.098 355.59 204.062 368.988 199.364 393.348C196.232 409.008 185.444 418.926 169.61 422.406L167.522 422.754C197.624 428.148 176.918 476.346 183.704 478.434L184.226 480L152.558 479.478C147.338 474.258 166.304 436.674 139.682 436.674H119.324L110.798 480H79.478ZM130.112 381.168L124.196 411.096H144.554C157.082 411.096 165.608 405.876 167.87 394.566C169.61 384.996 164.738 381.168 152.21 381.168H130.112ZM220.146 355.59H251.466L227.28 480H195.96L220.146 355.59ZM247.524 480L271.71 355.59H325.998C360.624 355.59 377.85 378.558 370.02 419.448C362.364 458.598 339.918 480 305.292 480H247.524ZM298.158 381.168L283.89 454.422H303.726C323.214 454.422 334.698 439.806 339.222 416.316C343.572 394.566 339.222 381.168 319.734 381.168H298.158ZM396.514 355.59H427.834L418.438 404.31H461.068L470.464 355.59H501.784L477.598 480H446.278L456.022 429.888H413.392L403.648 480H372.328L396.514 355.59ZM555.738 482.784C515.37 482.784 497.97 454.596 505.452 416.142C512.412 379.602 538.86 352.806 577.488 352.806C617.508 352.806 635.43 380.994 627.948 419.274C620.814 455.988 594.018 482.784 555.738 482.784ZM557.304 457.206C580.794 457.206 592.8 438.762 597.324 416.142C601.326 395.436 597.846 378.384 576.096 378.384C552.432 378.384 540.426 396.828 536.076 419.274C532.074 440.154 535.38 457.206 557.304 457.206ZM775.178 454.074H732.548L719.498 480H687.656L756.908 355.59H788.228L808.934 480H778.136L775.178 454.074ZM744.206 430.236H772.742L767.522 384.3H767.174L744.206 430.236ZM906.669 396.132C906.147 387.606 902.841 378.384 886.485 378.384C865.083 378.384 853.077 395.088 848.379 419.274C844.029 441.894 848.031 457.206 868.911 457.206C884.223 457.206 896.925 447.81 899.709 435.804L875.871 436.5L880.221 413.88H936.249L923.373 480H901.101V464.166L900.753 464.862C892.749 476.172 880.221 482.784 862.821 482.784C826.629 482.784 810.273 454.596 817.755 416.142C824.715 379.602 850.119 352.806 888.399 352.806C923.373 352.806 939.033 373.686 937.467 397.524L906.669 396.132Z" fill="#181818"/>
</svg>
